<svg width="391" height="414" viewBox="0 0 391 414" fill="none" xmlns="http://www.w3.org/2000/svg">
<path opacity="0.2" d="M207.562 218.842C207.954 223.256 199.747 225.673 195.494 218.842C190.896 212.808 194.276 198.795 207.562 194.749C220.075 189.96 239.875 199.154 243.766 218.842C248.724 237.773 233.752 263.312 207.562 267.03C182.185 272.147 150.739 251.425 147.221 218.842C141.889 187.054 168.508 149.912 207.562 146.561C245.858 141.077 288.852 173.393 292.039 218.842C297.71 263.495 259.536 312.234 207.562 315.216C156.355 321.067 101.776 277.149 98.9491 218.842C92.9264 161.293 142.678 101.021 207.562 98.3744C271.627 92.1941 337.86 147.639 340.311 218.842C346.702 289.249 285.327 361.125 207.562 363.403C130.578 369.951 52.7913 302.91 50.6765 218.842C43.9566 135.571 116.88 52.1069 207.562 50.1872C297.434 43.2727 386.837 121.917 388.584 218.842C395.679 315.01 311.126 410.007 207.562 411.591C104.811 418.842 3.78315 328.662 2.40401 218.842C-5.02839 109.817 91.0951 3.21611 207.562 2" stroke="white" stroke-width="3" stroke-linecap="round"/>
</svg>
